<?xml version="1.0" encoding="UTF-8" standalone="no"?>
<!-- Created with Inkscape (http://www.inkscape.org/) -->

<svg
   width="129.09357mm"
   height="129.07019mm"
   viewBox="0 0 129.09357 129.07019"
   version="1.1"
   id="svg5"
   xml:space="preserve"
   xmlns:inkscape="http://www.inkscape.org/namespaces/inkscape"
   xmlns:sodipodi="http://sodipodi.sourceforge.net/DTD/sodipodi-0.dtd"
   xmlns="http://www.w3.org/2000/svg"
   xmlns:svg="http://www.w3.org/2000/svg"><sodipodi:namedview
     id="namedview7"
     pagecolor="#ffffff"
     bordercolor="#000000"
     borderopacity="0.25"
     inkscape:showpageshadow="2"
     inkscape:pageopacity="0.0"
     inkscape:pagecheckerboard="0"
     inkscape:deskcolor="#d1d1d1"
     inkscape:document-units="mm"
     showgrid="false" /><defs
     id="defs2" /><g
     inkscape:label="Capa 1"
     inkscape:groupmode="layer"
     id="layer1"
     transform="translate(-624.79829,-344.02266)"><path
       style="fill:#ffffff;stroke-width:0.252088"
       d="m 626.93255,472.58377 c -0.64308,-0.31834 -1.23459,-0.87702 -1.58092,-1.4932 l -0.55334,-0.98455 0.0685,-16.34183 0.0684,-16.34185 0.56222,-0.78821 c 1.19456,-1.67464 0.30161,-1.60662 21.09243,-1.60662 h 18.80549 v -6.01283 -6.01283 l 0.57224,-0.85659 c 1.22697,-1.83665 -0.0987,-1.73808 23.37615,-1.73808 23.47483,0 22.14916,-0.0986 23.37613,1.73808 l 0.57224,0.85659 v 9.40985 9.40988 l 19.01431,0.0692 19.01431,0.0692 0.696,0.51974 c 0.38282,0.28588 0.9299,0.83293 1.21578,1.2157 l 0.51974,0.69593 0.0697,12.74459 0.07,12.74461 -0.52611,1.08683 c -0.38405,0.79334 -0.81582,1.22707 -1.59892,1.60616 l -1.07278,0.51932 -61.3669,-2e-4 -61.3669,-2e-4 z m 38.46268,-18.52361 v -11.47 h -16.51175 -16.5118 v 11.47 11.47001 h 16.5118 16.51175 z m 40.33411,-7.31056 v -18.78055 h -16.38572 -16.38574 v 18.78055 18.78057 h 16.38574 16.38572 z m 40.58619,10.71194 v -8.06865 l -16.44875,0.0649 -16.44874,0.0649 -0.0667,8.0038 -0.0667,8.00378 h 16.51532 16.51532 z M 641.95105,424.01383 c -0.97511,-0.34575 -9.0903,-8.78919 -9.34266,-9.72057 -0.75356,-2.78117 1.97384,-5.35777 4.72561,-4.46434 0.64681,0.21013 1.79692,1.13111 3.51196,2.81265 l 2.55017,2.50037 5.26456,-5.45297 c 6.37622,-6.60445 7.36422,-7.17503 9.80855,-5.66434 3.39554,2.09856 2.59802,3.79623 -5.84608,12.44467 -7.68294,7.86886 -8.3759,8.35874 -10.67211,7.54453 z m 85.83602,-0.11576 c -0.78683,-0.42822 -8.43602,-8.07369 -8.84023,-8.83595 -1.09083,-2.05696 0.17968,-4.8 2.49204,-5.38037 1.58893,-0.3988 2.43142,0.0536 5.22243,2.80387 l 2.65995,2.62114 5.28301,-5.31446 c 6.5145,-6.55329 6.17087,-6.27596 7.77487,-6.2748 2.64044,0.002 4.33059,2.13658 3.66088,4.62361 -0.29041,1.0786 -13.4497,14.94454 -14.88947,15.68909 -0.81421,0.42104 -2.64661,0.45804 -3.36348,0.0677 z m -43.06795,-11.44008 c -20.63149,-3.9018 -29.23806,-28.10117 -15.67884,-44.08466 0.87813,-1.03516 1.34727,-1.79111 1.23025,-1.98249 -0.10394,-0.17012 -3.01464,-3.9941 -6.46805,-8.49771 -7.42792,-9.68672 -7.60826,-10.05597 -6.00841,-12.30273 1.18533,-1.66463 -0.78818,-1.56663 31.54955,-1.56663 32.33771,0 30.36423,-0.0979 31.54955,1.56663 1.59982,2.24676 1.41951,2.61601 -6.0084,12.30273 -3.45342,4.50361 -6.36404,8.32756 -6.46805,8.49771 -0.11702,0.19151 0.35209,0.94733 1.23022,1.98249 16.24544,19.14997 -0.46949,48.71018 -24.92782,44.08466 z m 10.04438,-7.93138 c 14.94557,-4.71076 18.78334,-23.82682 6.73546,-33.54933 -12.61856,-10.18306 -31.33403,-1.30423 -31.39279,14.89313 -0.0468,12.8874 12.60042,22.4565 24.65733,18.6562 z m -7.24473,-7.32798 c -1.80123,-0.95096 -1.95647,-1.62753 -1.95647,-8.52586 v -6.04079 l -1.33775,0.0315 c -2.54172,0.0596 -4.13898,-1.60722 -3.90217,-4.07188 0.21969,-2.28546 1.22347,-2.99035 5.38917,-3.7842 7.20455,-1.37295 7.41247,-1.06067 7.41299,11.13624 l 5.1e-4,8.77012 -0.50757,0.99492 c -0.93017,1.82327 -3.20717,2.48874 -5.09861,1.49012 z m -8.79989,-35.90613 c 6.70732,-2.82881 14.26366,-2.87034 20.95502,-0.11526 1.86384,0.76742 2.45485,0.91701 2.671,0.67602 0.63098,-0.70355 7.66993,-9.99671 7.66993,-10.12624 0,-0.0773 -9.30204,-0.14068 -20.67121,-0.14068 -11.36919,0 -20.67123,0.0604 -20.67123,0.13439 0,0.10922 7.84865,10.45324 7.93152,10.45324 0.0126,0 0.96525,-0.39674 2.11497,-0.88163 z"
       id="path322"
       inkscape:export-filename="competitividad.svg"
       inkscape:export-xdpi="7.4985824"
       inkscape:export-ydpi="7.4985824" /></g></svg>
