<?xml version="1.0" encoding="UTF-8" standalone="no"?>
<!-- Created with Inkscape (http://www.inkscape.org/) -->

<svg
   width="151.9552mm"
   height="120.8002mm"
   viewBox="0 0 151.9552 120.8002"
   version="1.1"
   id="svg5"
   xml:space="preserve"
   xmlns:inkscape="http://www.inkscape.org/namespaces/inkscape"
   xmlns:sodipodi="http://sodipodi.sourceforge.net/DTD/sodipodi-0.dtd"
   xmlns="http://www.w3.org/2000/svg"
   xmlns:svg="http://www.w3.org/2000/svg"><sodipodi:namedview
     id="namedview7"
     pagecolor="#ffffff"
     bordercolor="#000000"
     borderopacity="0.25"
     inkscape:showpageshadow="2"
     inkscape:pageopacity="0.0"
     inkscape:pagecheckerboard="0"
     inkscape:deskcolor="#d1d1d1"
     inkscape:document-units="mm"
     showgrid="false" /><defs
     id="defs2" /><g
     inkscape:label="Capa 1"
     inkscape:groupmode="layer"
     id="layer1"
     transform="translate(-494.74788,-233.65121)"><path
       id="path455"
       style="fill:#ffffff;stroke-width:0.68293"
       d="m 570.88672,233.66797 c -12.11328,0.25713 -23.81517,6.7342 -30.7082,16.65853 -2.79238,3.97204 -4.93764,8.44659 -6.0347,13.18598 -0.98089,5.23352 -0.93855,10.62447 -0.30984,15.89768 0.65734,4.309 2.46363,8.36052 4.65127,12.09832 5.70809,9.55408 15.47525,16.70769 26.44986,18.8024 9.18605,1.72324 18.86954,-0.45079 26.79242,-5.29618 8.36542,-5.06804 15.02244,-13.24106 17.45628,-22.79352 0.99154,-3.96016 0.9132,-8.07866 0.90213,-12.13134 -0.10509,-3.42344 -0.41372,-6.88576 -1.5944,-10.12714 -3.14009,-9.25579 -10.10084,-17.01334 -18.62288,-21.68723 -5.78653,-3.13829 -12.39074,-4.81191 -18.98194,-4.6075 z m 1.09766,7.7207 c 9.85708,-0.0117 19.38505,5.29958 24.98805,13.33739 3.15673,4.50104 5.10083,9.6948 5.51893,15.17448 0.6393,7.62545 -1.84907,15.38975 -6.60403,21.35906 -4.8379,6.17013 -12.07993,10.39602 -19.84918,11.50265 -2.29123,0.37105 -4.5951,0.59317 -6.88099,0.24609 -4.20327,-0.4893 -8.14792,-1.71608 -11.89135,-3.72014 -4.89379,-2.61056 -9.09083,-6.626 -11.8537,-11.35461 -1.67406,-2.86269 -2.89054,-6.0063 -3.55198,-9.19441 -1.54588,-7.33994 -0.41979,-15.1023 3.25715,-21.67311 4.10671,-7.34986 11.39508,-12.76914 19.56089,-14.75324 2.38753,-0.6044 4.84283,-0.92068 7.30621,-0.92416 z m -11.05665,10.77344 c -2.08389,0.28646 -3.69562,1.79981 -5.28653,3.04425 -3.53376,3.18815 -5.97058,7.46955 -7.40948,11.97334 -0.74301,2.40451 -1.24027,5.14166 -0.1706,7.52551 0.85065,1.75978 3.15334,2.53408 4.90149,1.6761 1.79223,-0.85695 2.53522,-2.94625 2.55115,-4.82084 0.0311,-2.4892 1.20437,-4.77245 2.45633,-6.85943 1.35712,-2.22459 3.19457,-4.09742 5.14269,-5.80513 1.01904,-0.94883 2.21699,-2.27733 1.74083,-3.78098 -0.58349,-1.38259 -1.82138,-2.5923 -3.30673,-2.92157 -0.20614,-0.0289 -0.41104,-0.0413 -0.61915,-0.0312 z m -57.9707,40.88867 c -1.78718,0.11985 -3.82861,-0.17904 -5.34961,0.96875 -1.69269,1.43125 -1.64182,4.35152 0.0995,5.71869 1.62493,1.11887 3.72418,0.76634 5.58212,0.88902 3.07363,0.0517 6.0461,0.12864 9.05966,0.91877 6.15223,1.56864 11.39947,5.33552 16.51793,8.931 6.28566,4.58674 12.62443,9.18345 19.62435,12.64204 5.77692,2.88493 11.96718,5.13921 18.41233,5.86105 5.1772,0.24922 10.36905,-0.24908 15.47212,-1.10131 6.2096,-1.26153 11.96852,-4.08379 17.43833,-7.19806 3.90071,-2.24459 7.52854,-4.92774 10.97181,-7.8177 4.78209,-3.77065 9.62726,-7.495 15.15641,-10.11219 2.76101,-1.13456 5.85749,-1.44038 8.84813,-1.78692 2.75788,-0.25882 5.5706,-0.20684 8.27505,-0.85796 1.64606,-0.4861 2.62007,-2.32898 2.23306,-3.9754 -0.25016,-1.54947 -1.60333,-2.88359 -3.21292,-2.88976 -2.84494,-0.31954 -5.72305,-0.21354 -8.57614,-0.0747 -5.83442,0.40575 -11.49053,2.40813 -16.43836,5.49565 -5.53411,3.31063 -10.28237,7.71202 -15.38757,11.61253 -4.99836,3.74188 -10.43049,6.97867 -16.46061,8.78233 -5.94316,1.7819 -12.16241,2.07961 -18.32032,1.82031 -6.00063,-0.41563 -11.49439,-3.05604 -16.76953,-5.78906 -5.78371,-3.05625 -11.15321,-6.81593 -16.37768,-10.73263 -5.72577,-4.17718 -11.75752,-8.25769 -18.67505,-10.13846 -3.94887,-1.03137 -8.0576,-1.25934 -12.12305,-1.16602 z m 133.80469,23.14844 c -6.81505,0.0478 -13.61725,1.33828 -19.95106,3.86291 -6.17613,2.41682 -12.03743,5.52897 -18.28914,7.76393 -7.67492,2.87941 -15.70194,4.73335 -23.90493,5.19244 -6.3953,0.42098 -12.8453,0.15891 -19.11465,-1.28541 -9.90889,-2.19395 -19.22839,-6.48308 -28.55272,-10.48309 -6.26725,-2.65025 -12.88278,-4.89452 -19.76022,-4.94159 -2.71962,-0.0682 -5.46722,-0.13928 -8.16439,0.24747 -1.36113,0.25641 -2.35617,1.43761 -2.5967,2.76684 -0.43447,1.7713 0.75541,3.79529 2.6092,4.064 2.14433,0.43378 4.34972,0.41474 6.52403,0.59906 3.48556,0.21531 6.91883,0.46412 10.21127,1.42649 9.53355,2.63808 18.18998,7.70737 27.52419,10.97034 6.8499,2.45756 14.01644,4.05072 21.28093,4.57186 2.17669,0.16451 4.35095,0.47864 6.52856,0.55662 5.04812,-0.2957 10.05594,-1.05001 15.05056,-1.80798 5.34277,-0.90942 10.46301,-2.76953 15.51834,-4.66965 5.35642,-2.04819 10.54829,-4.48489 15.82359,-6.72508 4.39166,-1.82174 8.91976,-3.29019 13.61318,-3.90714 4.03648,-0.58529 8.18211,-0.37687 12.15838,-1.35413 1.57246,-0.43744 2.48235,-2.14353 2.42127,-3.69945 -0.0229,-1.31276 -1.19374,-2.17721 -2.3434,-2.53503 -2.1102,-0.6767 -4.39597,-0.59195 -6.58629,-0.61341 z m -141.66016,31.58984 c -0.29082,1.88012 -0.67067,3.89324 0.10547,5.71289 2.27791,0.77337 4.72168,0.57541 7.0876,0.73622 9.83438,0.25532 19.67395,0.181 29.51084,0.21327 38.29931,-0.004 76.59844,-0.14753 114.89765,-0.22292 0,-2.29818 10e-6,-4.59636 0,-6.89454 -50.51236,0 -101.02473,0 -151.5371,0 -0.0215,0.1517 -0.043,0.30339 -0.0645,0.45508 z" /></g></svg>
